<mxfile host="app.diagrams.net" modified="2022-02-22T17:07:42.535Z" agent="5.0 (Macintosh; Intel Mac OS X 10_15_7) AppleWebKit/605.1.15 (KHTML, like Gecko) Version/15.2 Safari/605.1.15" etag="BELbA2ryA6euwp8v8ohs" version="16.6.2" type="github">
  <diagram id="GzXeeIQf16gBCmkA-v_s" name="Page-1">
    <mxGraphModel dx="2066" dy="1213" grid="1" gridSize="10" guides="1" tooltips="1" connect="1" arrows="1" fold="1" page="1" pageScale="1" pageWidth="827" pageHeight="1169" math="0" shadow="0">
      <root>
        <mxCell id="0" />
        <mxCell id="1" parent="0" />
        <mxCell id="n0GPlbkWmcikiLW3_ASu-1" value="&lt;font style=&quot;font-size: 36px&quot;&gt;大三：想要成為牧會者&lt;/font&gt;" style="rounded=1;whiteSpace=wrap;html=1;" vertex="1" parent="1">
          <mxGeometry x="80" y="50" width="420" height="60" as="geometry" />
        </mxCell>
        <mxCell id="n0GPlbkWmcikiLW3_ASu-2" value="大四的約定：半年找工作" style="rounded=1;whiteSpace=wrap;html=1;fontSize=36;" vertex="1" parent="1">
          <mxGeometry x="90" y="180" width="420" height="60" as="geometry" />
        </mxCell>
        <mxCell id="n0GPlbkWmcikiLW3_ASu-3" value="" style="endArrow=classic;html=1;rounded=0;fontSize=36;exitX=0.524;exitY=1.017;exitDx=0;exitDy=0;exitPerimeter=0;" edge="1" parent="1" source="n0GPlbkWmcikiLW3_ASu-1" target="n0GPlbkWmcikiLW3_ASu-2">
          <mxGeometry width="50" height="50" relative="1" as="geometry">
            <mxPoint x="390" y="640" as="sourcePoint" />
            <mxPoint x="440" y="590" as="targetPoint" />
          </mxGeometry>
        </mxCell>
        <mxCell id="n0GPlbkWmcikiLW3_ASu-4" value="找到" style="rhombus;whiteSpace=wrap;html=1;fontSize=36;" vertex="1" parent="1">
          <mxGeometry x="200" y="330" width="200" height="210" as="geometry" />
        </mxCell>
        <mxCell id="n0GPlbkWmcikiLW3_ASu-5" value="" style="endArrow=classic;html=1;rounded=0;fontSize=36;exitX=0.5;exitY=1;exitDx=0;exitDy=0;entryX=0.5;entryY=0;entryDx=0;entryDy=0;" edge="1" parent="1" source="n0GPlbkWmcikiLW3_ASu-2" target="n0GPlbkWmcikiLW3_ASu-4">
          <mxGeometry width="50" height="50" relative="1" as="geometry">
            <mxPoint x="390" y="640" as="sourcePoint" />
            <mxPoint x="440" y="590" as="targetPoint" />
          </mxGeometry>
        </mxCell>
        <mxCell id="n0GPlbkWmcikiLW3_ASu-6" value="工作會員" style="rounded=1;whiteSpace=wrap;html=1;fontSize=36;" vertex="1" parent="1">
          <mxGeometry x="520" y="405" width="180" height="60" as="geometry" />
        </mxCell>
        <mxCell id="n0GPlbkWmcikiLW3_ASu-7" value="" style="endArrow=classic;html=1;rounded=0;fontSize=36;exitX=1;exitY=0.5;exitDx=0;exitDy=0;entryX=0;entryY=0.5;entryDx=0;entryDy=0;" edge="1" parent="1" source="n0GPlbkWmcikiLW3_ASu-4" target="n0GPlbkWmcikiLW3_ASu-6">
          <mxGeometry width="50" height="50" relative="1" as="geometry">
            <mxPoint x="390" y="640" as="sourcePoint" />
            <mxPoint x="440" y="590" as="targetPoint" />
          </mxGeometry>
        </mxCell>
        <mxCell id="n0GPlbkWmcikiLW3_ASu-8" value="是" style="text;html=1;strokeColor=none;fillColor=none;align=center;verticalAlign=middle;whiteSpace=wrap;rounded=0;fontSize=36;" vertex="1" parent="1">
          <mxGeometry x="420" y="400" width="60" height="30" as="geometry" />
        </mxCell>
        <mxCell id="n0GPlbkWmcikiLW3_ASu-9" value="" style="endArrow=classic;html=1;rounded=0;fontSize=36;exitX=0.5;exitY=1;exitDx=0;exitDy=0;" edge="1" parent="1" source="n0GPlbkWmcikiLW3_ASu-4" target="n0GPlbkWmcikiLW3_ASu-10">
          <mxGeometry width="50" height="50" relative="1" as="geometry">
            <mxPoint x="390" y="640" as="sourcePoint" />
            <mxPoint x="300" y="630" as="targetPoint" />
          </mxGeometry>
        </mxCell>
        <mxCell id="n0GPlbkWmcikiLW3_ASu-10" value="獻身會員" style="rounded=1;whiteSpace=wrap;html=1;fontSize=36;" vertex="1" parent="1">
          <mxGeometry x="210" y="600" width="180" height="60" as="geometry" />
        </mxCell>
        <mxCell id="n0GPlbkWmcikiLW3_ASu-11" value="否" style="text;html=1;strokeColor=none;fillColor=none;align=center;verticalAlign=middle;whiteSpace=wrap;rounded=0;fontSize=36;" vertex="1" parent="1">
          <mxGeometry x="310" y="550" width="60" height="30" as="geometry" />
        </mxCell>
        <mxCell id="n0GPlbkWmcikiLW3_ASu-12" value="重新約定：先建立祝福家庭，累積第三祝福的基台，再牧會" style="rounded=1;whiteSpace=wrap;html=1;fontSize=36;" vertex="1" parent="1">
          <mxGeometry x="30" y="770" width="540" height="90" as="geometry" />
        </mxCell>
        <mxCell id="n0GPlbkWmcikiLW3_ASu-14" value="" style="endArrow=classic;html=1;rounded=0;fontSize=36;exitX=0.5;exitY=1;exitDx=0;exitDy=0;" edge="1" parent="1" source="n0GPlbkWmcikiLW3_ASu-10" target="n0GPlbkWmcikiLW3_ASu-12">
          <mxGeometry width="50" height="50" relative="1" as="geometry">
            <mxPoint x="390" y="640" as="sourcePoint" />
            <mxPoint x="440" y="590" as="targetPoint" />
          </mxGeometry>
        </mxCell>
        <mxCell id="n0GPlbkWmcikiLW3_ASu-15" value="獻身7年" style="text;html=1;strokeColor=none;fillColor=none;align=center;verticalAlign=middle;whiteSpace=wrap;rounded=0;fontSize=36;" vertex="1" parent="1">
          <mxGeometry x="300" y="690" width="170" height="30" as="geometry" />
        </mxCell>
        <mxCell id="n0GPlbkWmcikiLW3_ASu-16" value="" style="endArrow=classic;html=1;rounded=0;fontSize=36;exitX=0.487;exitY=0.989;exitDx=0;exitDy=0;exitPerimeter=0;" edge="1" parent="1" source="n0GPlbkWmcikiLW3_ASu-12">
          <mxGeometry width="50" height="50" relative="1" as="geometry">
            <mxPoint x="390" y="610" as="sourcePoint" />
            <mxPoint x="293" y="940" as="targetPoint" />
          </mxGeometry>
        </mxCell>
        <mxCell id="n0GPlbkWmcikiLW3_ASu-17" value="3個月找工作" style="text;html=1;strokeColor=none;fillColor=none;align=center;verticalAlign=middle;whiteSpace=wrap;rounded=0;fontSize=36;" vertex="1" parent="1">
          <mxGeometry x="300" y="880" width="230" height="30" as="geometry" />
        </mxCell>
        <mxCell id="n0GPlbkWmcikiLW3_ASu-18" value="初級軟體工程師" style="rounded=1;whiteSpace=wrap;html=1;fontSize=36;" vertex="1" parent="1">
          <mxGeometry x="160" y="940" width="280" height="60" as="geometry" />
        </mxCell>
        <mxCell id="n0GPlbkWmcikiLW3_ASu-19" value="中級" style="rounded=1;whiteSpace=wrap;html=1;fontSize=36;" vertex="1" parent="1">
          <mxGeometry x="220" y="1060" width="150" height="60" as="geometry" />
        </mxCell>
        <mxCell id="n0GPlbkWmcikiLW3_ASu-20" value="" style="endArrow=classic;html=1;rounded=0;fontSize=36;exitX=0.464;exitY=1.017;exitDx=0;exitDy=0;exitPerimeter=0;entryX=0.474;entryY=0.017;entryDx=0;entryDy=0;entryPerimeter=0;" edge="1" parent="1" source="n0GPlbkWmcikiLW3_ASu-18" target="n0GPlbkWmcikiLW3_ASu-19">
          <mxGeometry width="50" height="50" relative="1" as="geometry">
            <mxPoint x="390" y="1060" as="sourcePoint" />
            <mxPoint x="440" y="1010" as="targetPoint" />
          </mxGeometry>
        </mxCell>
        <mxCell id="n0GPlbkWmcikiLW3_ASu-21" value="1年技術學習" style="text;html=1;strokeColor=none;fillColor=none;align=center;verticalAlign=middle;whiteSpace=wrap;rounded=0;fontSize=36;" vertex="1" parent="1">
          <mxGeometry x="300" y="1020" width="310" height="30" as="geometry" />
        </mxCell>
        <mxCell id="n0GPlbkWmcikiLW3_ASu-22" style="edgeStyle=orthogonalEdgeStyle;rounded=0;orthogonalLoop=1;jettySize=auto;html=1;exitX=0.75;exitY=0;exitDx=0;exitDy=0;entryX=0.75;entryY=0.333;entryDx=0;entryDy=0;entryPerimeter=0;fontSize=36;" edge="1" parent="1" source="n0GPlbkWmcikiLW3_ASu-21" target="n0GPlbkWmcikiLW3_ASu-21">
          <mxGeometry relative="1" as="geometry" />
        </mxCell>
        <mxCell id="n0GPlbkWmcikiLW3_ASu-23" value="高級" style="rounded=1;whiteSpace=wrap;html=1;fontSize=36;" vertex="1" parent="1">
          <mxGeometry x="220" y="1180" width="120" height="60" as="geometry" />
        </mxCell>
        <mxCell id="n0GPlbkWmcikiLW3_ASu-24" value="" style="endArrow=classic;html=1;rounded=0;fontSize=36;exitX=0.457;exitY=1.033;exitDx=0;exitDy=0;entryX=0.558;entryY=-0.067;entryDx=0;entryDy=0;entryPerimeter=0;exitPerimeter=0;" edge="1" parent="1" source="n0GPlbkWmcikiLW3_ASu-19" target="n0GPlbkWmcikiLW3_ASu-23">
          <mxGeometry width="50" height="50" relative="1" as="geometry">
            <mxPoint x="390" y="930" as="sourcePoint" />
            <mxPoint x="440" y="880" as="targetPoint" />
          </mxGeometry>
        </mxCell>
        <mxCell id="n0GPlbkWmcikiLW3_ASu-25" value="獨立開發上線的系統" style="text;html=1;strokeColor=none;fillColor=none;align=center;verticalAlign=middle;whiteSpace=wrap;rounded=0;fontSize=36;" vertex="1" parent="1">
          <mxGeometry x="300" y="1130" width="340" height="30" as="geometry" />
        </mxCell>
      </root>
    </mxGraphModel>
  </diagram>
</mxfile>
